<?xml version="1.0" encoding="utf-8"?>
<!-- Generator: Adobe Illustrator 16.0.0, SVG Export Plug-In . SVG Version: 6.00 Build 0)  -->
<!DOCTYPE svg PUBLIC "-//W3C//DTD SVG 1.1//EN" "http://www.w3.org/Graphics/SVG/1.1/DTD/svg11.dtd">
<svg version="1.1" id="Layer_1" xmlns="http://www.w3.org/2000/svg" xmlns:xlink="http://www.w3.org/1999/xlink" x="0px" y="0px"
	 width="1224px" height="792px" viewBox="0 0 1224 792" enable-background="new 0 0 1224 792" xml:space="preserve">
<g>
	<g>
		<g>
			<path fill-rule="evenodd" clip-rule="evenodd" fill="#6F8590" d="M451.919,542.98c0-17.615,0.479-32.301-0.357-46.902
				c-0.198-3.393-4.233-7.578-7.583-9.615c-17.441-10.57-35.117-20.805-52.982-30.662c-8.098-4.471-11.486-10.432-11.319-19.744
				c0.432-24.49,0.26-49.002,0.097-73.503c-0.064-9.521,1.763-17.476,13.15-18.263c9.052-0.623,14.043,6.011,14.159,18.742
				c0.179,19.196,0.514,38.399-0.128,57.575c-0.306,9.252,2.243,14.918,10.849,19.383c16.657,8.621,32.412,18.982,48.991,27.766
				c9.611,5.092,13.14,11.947,12.772,22.631c-0.648,18.76,0.466,37.59-0.442,56.332c-0.473,9.764,3.327,14.658,11.413,18.996
				c17.258,9.266,34.01,19.451,50.99,29.227c8.27,4.76,14.226,10.967,8.265,20.738c-5.811,9.531-13.882,7.563-22.277,2.695
				c-45.537-26.441-91.162-52.719-136.803-78.979c-8.247-4.746-14.02-10.572-9.038-20.709c4.037-8.188,12.003-8.93,23.25-2.57
				C419.743,524.504,434.491,533.008,451.919,542.98z"/>
		</g>
		<g>
			<path fill-rule="evenodd" clip-rule="evenodd" fill="#6F8590" d="M742.833,339.124c-13.729,7.851-24.965,14.299-36.215,20.717
				c-4.969,2.837-9.903,5.731-14.938,8.444c-7.5,4.055-14.564,3.54-19.233-4.034c-5.164-8.386-1.329-14.812,6.236-19.479
				c5.563-3.432,11.294-6.59,16.955-9.858c38.219-22.057,76.445-44.113,114.66-66.17c2.832-1.63,5.696-3.201,8.497-4.896
				c7.966-4.83,15.927-5.858,21.278,3.064c5.402,8.991,0.623,15.441-7.445,20.102c-17.686,10.224-35.188,20.788-53.143,30.517
				c-7.044,3.817-9.836,8.284-9.615,16.362c0.546,20.016-0.005,40.058,0.26,60.08c0.118,9.161-3.386,15.336-11.5,19.825
				c-18.228,10.094-36.35,20.414-54.015,31.445c-3.587,2.24-6.872,7.977-7.02,12.209c-0.726,20.424-0.488,40.865-0.262,61.313
				c0.104,9.895-1.512,18.475-13.348,19.621c-8.725,0.84-14.003-6.508-14.058-18.969c-0.115-24.115,0.248-48.234-0.156-72.348
				c-0.171-9.826,3.769-15.996,12.198-20.65c17.886-9.867,35.704-19.904,52.969-30.801c3.861-2.437,7.192-8.531,7.543-13.186
				C743.483,369.08,742.833,355.599,742.833,339.124z"/>
		</g>
		<g>
			<path fill-rule="evenodd" clip-rule="evenodd" fill="#6F8590" d="M815.147,464.844c-15.281,8.82-28.193,15.725-40.369,23.729
				c-2.844,1.869-4.401,7.49-4.491,11.42c-0.451,20.01-0.46,40.037-0.104,60.041c0.182,9.996-3.123,16.826-12.28,21.834
				c-21.119,11.566-41.84,23.879-62.599,36.09c-8.638,5.086-17.227,7.75-23.119-2.795c-6.03-10.811,1.785-16.371,10.087-21.139
				c16.292-9.336,32.223-19.383,48.932-27.904c9.47-4.822,12.337-10.943,11.869-21.203c-0.854-18.34,0.191-36.758-0.408-55.119
				c-0.343-10.217,3.118-16.795,12.238-21.688c16.905-9.07,33.096-19.467,50.051-28.42c8.059-4.244,10.647-9.586,10.379-18.414
				c-0.604-19.588-0.194-39.205-0.16-58.806c0.021-9.39,2.168-17.917,13.556-18.003c11.352-0.083,13.609,8.027,13.589,17.697
				c-0.111,52.7-0.124,105.385,0.038,158.088c0.023,9.756-2.444,17.893-13.474,17.941c-11.078,0.053-13.752-8.359-13.743-17.916
				C815.161,502.762,815.147,485.246,815.147,464.844z"/>
		</g>
		<g>
			<path fill-rule="evenodd" clip-rule="evenodd" fill="#6F8590" d="M493.086,315.501c17.72,10.237,32.901,19.025,48.094,27.786
				c8.167,4.71,14.526,10.779,8.695,20.658c-5.693,9.634-14.043,7.699-22.343,2.889c-45.598-26.389-91.211-52.766-136.875-79.055
				c-8.333-4.792-14.333-10.943-8.732-20.68c5.566-9.678,13.899-7.858,22.251-2.953c17.261,10.126,34.884,19.661,51.857,30.246
				c7.36,4.605,12.922,4.145,20.042-0.252c16.339-10.07,33.38-18.983,49.722-29.042c8.681-5.35,16.147-5.688,24.958-0.273
				c17.036,10.487,34.324,20.645,52.069,29.851c4.39,2.277,11.965,2.35,16.328,0.086c18.11-9.409,35.593-20.016,53.213-30.344
				c8.183-4.796,16.08-7.052,22.541,2.22c5.202,7.465,1.955,14.902-9.262,21.443c-21.156,12.358-42.544,24.342-63.596,36.876
				c-7.532,4.491-14.126,4.653-21.698,0.124c-17.865-10.697-36.166-20.674-54.016-31.405c-5.573-3.351-9.797-3.771-15.507-0.136
				C519.211,300.93,507.046,307.46,493.086,315.501z"/>
		</g>
		<g>
			<path fill-rule="evenodd" clip-rule="evenodd" fill="#6F8590" d="M565.753,189.85c14.853,8.56,27.3,16.36,40.394,22.857
				c3.34,1.647,9.384,0.361,13.063-1.644c17.916-9.742,35.617-19.928,53.064-30.503c7.938-4.814,14.707-4.834,22.701-0.028
				c20.979,12.625,42.271,24.716,63.57,36.809c8.348,4.742,14.002,10.567,9.311,20.667c-3.814,8.194-11.964,8.932-23.209,2.508
				c-17.006-9.712-34.145-19.229-50.82-29.502c-7.063-4.351-12.555-4.861-19.852-0.256c-15.518,9.797-32.121,17.902-47.443,27.966
				c-11.171,7.335-20.396,6.811-31.355-0.285c-15.391-9.962-31.961-18.115-47.471-27.934c-6.982-4.414-12.089-3.834-18.769,0.264
				c-17.051,10.441-34.627,20.007-51.831,30.203c-8.293,4.916-16.137,6.847-22.509-2.276c-5.089-7.29-1.541-15.2,9.338-21.501
				c45.214-26.162,90.506-52.182,135.685-78.408c8.213-4.772,15.978-7.306,22.518,1.938c5.194,7.342,1.826,15.114-9.038,21.535
				C598.03,171.16,582.863,179.893,565.753,189.85z"/>
		</g>
		<g>
			<path fill-rule="evenodd" clip-rule="evenodd" fill="#6F8590" d="M597.714,543.531c0-21.473,0.015-39.742-0.013-58
				c-0.009-8.393,3.16-14.439,12.15-15.549c8.869-1.084,14.48,5.238,14.557,16.75c0.186,27.365,0.08,54.75,0.09,82.125
				c0.01,25.744-0.092,51.486,0.055,77.234c0.059,9.625-2.291,17.988-13.437,18.01c-11.117,0.012-13.585-8.289-13.497-17.951
				c0.17-19.211-0.442-38.424,0.265-57.604c0.355-9.744-2.44-15.688-11.431-20.346c-16.661-8.621-32.388-19.063-48.988-27.826
				c-9.661-5.098-13.156-11.98-12.807-22.633c0.617-18.77-0.305-37.604,0.387-56.375c0.32-8.85-2.19-14.043-10.271-18.301
				c-17.682-9.334-34.722-19.887-52.088-29.826c-8.539-4.877-13.68-11.486-7.855-20.931c5.464-8.855,13.6-7.256,21.476-2.7
				c21.569,12.469,43.045,25.102,64.76,37.301c8.057,4.521,11.522,10.658,11.354,19.879c-0.352,20.006,0.181,40.047-0.236,60.053
				c-0.151,7.34,1.669,12.08,8.618,15.611C572.382,528.344,583.431,535.299,597.714,543.531z"/>
		</g>
	</g>
	<g>
		<g>
			<path fill="#154460" d="M1158.223,223.628c-12.073,0.945-22.662-8.114-23.612-20.192c-0.938-12.071,8.112-22.663,20.183-23.613
				c12.072-0.942,22.669,8.121,23.607,20.191C1179.345,212.084,1170.292,222.685,1158.223,223.628z M1156.139,197.018
				c-2.597,0.198-4.549,2.478-4.342,5.077c0.199,2.607,2.481,4.55,5.078,4.346c2.598-0.206,4.55-2.476,4.345-5.085
				C1161.017,198.759,1158.734,196.809,1156.139,197.018z"/>
		</g>
		<g>
			
				<rect x="915.197" y="203.098" transform="matrix(0.997 -0.078 0.078 0.997 -13.3806 80.9082)" fill="#154460" width="227.366" height="17.238"/>
		</g>
		<g>
			<polygon fill="#154460" points="924.448,519.746 901.514,520.832 890.777,218.194 913.699,217.096 			"/>
		</g>
		<g>
			<path fill="#154460" d="M929.704,550.375c-3.973,4.313-9.394,6.822-15.255,7.072c-5.857,0.242-11.465-1.818-15.785-5.793
				c-4.314-3.969-6.822-9.385-7.064-15.25c-0.244-5.854,1.806-11.463,5.779-15.785c3.977-4.318,9.393-6.82,15.258-7.068
				c5.86-0.244,11.461,1.813,15.773,5.785c4.322,3.975,6.839,9.389,7.078,15.254C935.725,540.455,933.682,546.053,929.704,550.375z
				 M910.073,532.303c-0.861,0.918-1.31,2.135-1.253,3.387c0.056,1.268,0.592,2.43,1.518,3.281c0.936,0.863,2.138,1.305,3.398,1.25
				c2.527-0.102,4.63-2.393,4.529-4.928c-0.052-1.258-0.591-2.422-1.525-3.275c-0.925-0.859-2.126-1.297-3.393-1.25
				C912.083,530.828,910.916,531.371,910.073,532.303z"/>
		</g>
		<g>
			<polygon fill="#154460" points="898.313,224.832 666.683,81.78 674.437,62.657 906.054,205.706 			"/>
		</g>
		<g>
			<path fill="#154460" d="M665.276,85.975c-5.569,1.82-11.518,1.371-16.752-1.282c-10.813-5.482-15.142-18.718-9.663-29.526
				c2.647-5.225,7.182-9.125,12.758-10.941c5.57-1.831,11.521-1.363,16.764,1.281c5.231,2.652,9.116,7.181,10.941,12.758
				c1.826,5.577,1.367,11.527-1.279,16.762C675.381,80.269,670.857,84.15,665.276,85.975z M656.979,60.61
				c-1.193,0.389-2.183,1.22-2.747,2.356c-1.183,2.322-0.246,5.171,2.083,6.347c2.249,1.145,5.203,0.167,6.349-2.076
				c0.579-1.128,0.667-2.414,0.283-3.609c-0.395-1.202-1.231-2.176-2.362-2.746C659.46,60.308,658.179,60.222,656.979,60.61z"/>
		</g>
		<g>
			<path fill="#FFFFFF" d="M903.808,244.769c-12.077,0.948-22.664-8.111-23.604-20.189c-0.951-12.07,8.099-22.669,20.174-23.612
				c12.073-0.942,22.664,8.117,23.608,20.184C924.931,233.226,915.879,243.825,903.808,244.769z"/>
		</g>
		<g>
			<path fill="#154460" d="M903.808,244.769c-12.077,0.948-22.664-8.111-23.604-20.189c-0.951-12.07,8.099-22.669,20.174-23.612
				c12.073-0.942,22.664,8.117,23.608,20.184C924.931,233.226,915.879,243.825,903.808,244.769z M901.725,218.159
				c-2.597,0.197-4.552,2.486-4.348,5.076c0.21,2.609,2.482,4.548,5.085,4.349c2.594-0.208,4.549-2.478,4.352-5.086
				C906.606,219.903,904.315,217.953,901.725,218.159z"/>
		</g>
	</g>
	<g>
		<g>
			<path fill="#154460" d="M63.472,561.582c12.078-0.865,22.612,8.262,23.475,20.344c0.863,12.076-8.252,22.617-20.334,23.477
				c-12.078,0.875-22.609-8.252-23.476-20.334C42.27,572.988,51.39,562.445,63.472,561.582z M65.382,588.211
				c2.594-0.186,4.562-2.455,4.375-5.053c-0.188-2.605-2.458-4.566-5.052-4.377c-2.602,0.188-4.566,2.447-4.379,5.051
				C60.514,586.432,62.785,588.395,65.382,588.211z"/>
		</g>
		<g>
			<polygon fill="#154460" points="78.723,573.873 305.506,557.604 306.741,574.803 79.956,591.066 			"/>
		</g>
		<g>
			<polygon fill="#154460" points="299.168,266.999 322.107,266.056 330.875,568.75 307.942,569.701 			"/>
		</g>
		<g>
			<path fill="#154460" d="M294.109,236.331c4.001-4.292,9.429-6.761,15.295-6.973c5.865-0.204,11.459,1.886,15.751,5.89
				c4.291,4.001,6.76,9.434,6.969,15.295c0.205,5.857-1.881,11.458-5.887,15.75c-4.004,4.289-9.435,6.761-15.301,6.97
				c-5.863,0.205-11.452-1.89-15.74-5.886c-4.292-4.004-6.776-9.434-6.976-15.295C288.021,246.211,290.104,240.62,294.109,236.331z
				 M313.623,254.532c0.864-0.918,1.318-2.129,1.271-3.386c-0.047-1.269-0.576-2.432-1.498-3.288
				c-0.927-0.867-2.125-1.317-3.384-1.271c-2.526,0.083-4.648,2.359-4.566,4.893c0.044,1.26,0.577,2.427,1.504,3.29
				c0.922,0.863,2.12,1.305,3.383,1.274C311.599,255.99,312.767,255.457,313.623,254.532z"/>
		</g>
		<g>
			<polygon fill="#154460" points="323.384,562.068 554.072,706.627 546.202,725.703 315.512,581.145 			"/>
		</g>
		<g>
			<path fill="#154460" d="M555.508,702.438c5.583-1.787,11.535-1.289,16.744,1.391c10.779,5.555,15.025,18.82,9.472,29.588
				c-2.68,5.209-7.241,9.082-12.828,10.859c-5.584,1.797-11.527,1.289-16.755-1.389c-5.213-2.688-9.069-7.244-10.858-12.832
				c-1.787-5.58-1.296-11.537,1.386-16.756C545.369,708.08,549.917,704.227,555.508,702.438z M563.644,727.855
				c1.197-0.383,2.19-1.207,2.765-2.334c1.188-2.314,0.273-5.172-2.044-6.367c-2.241-1.156-5.205-0.195-6.365,2.037
				c-0.583,1.125-0.677,2.408-0.303,3.609c0.39,1.201,1.216,2.18,2.333,2.756C561.157,728.145,562.441,728.242,563.644,727.855z"/>
		</g>
		<g>
			<path fill="#FFFFFF" d="M318.017,542.096c12.082-0.865,22.611,8.262,23.474,20.342c0.872,12.076-8.252,22.617-20.331,23.482
				c-12.082,0.865-22.612-8.262-23.475-20.342C296.822,553.5,305.938,542.965,318.017,542.096z"/>
		</g>
		<g>
			<path fill="#154460" d="M318.017,542.096c12.082-0.865,22.611,8.262,23.474,20.342c0.872,12.076-8.252,22.617-20.331,23.482
				c-12.082,0.865-22.612-8.262-23.475-20.342C296.822,553.5,305.938,542.965,318.017,542.096z M319.926,568.721
				c2.601-0.184,4.566-2.455,4.379-5.051c-0.187-2.604-2.458-4.561-5.056-4.379c-2.596,0.188-4.569,2.449-4.382,5.051
				C315.051,566.943,317.329,568.912,319.926,568.721z"/>
		</g>
	</g>
</g>
</svg>
